<svg xmlns="http://www.w3.org/2000/svg" width="466" height="75" viewBox="0 0 466 75" role="img" aria-label="Yossi Abutbul">
  <defs>
    <linearGradient id="g" x1="0" y1="0" x2="1" y2="0.35">
      <stop offset="0" stop-color="#1F2328"/>
      <stop offset="1" stop-color="#0A5BBF"/>
    </linearGradient>
  </defs>
  <path transform="translate(4.00 55.41)" fill="url(#g)" d="M27.22 0L17.71 0L17.71-17.35L0.58-50.40L11.16-50.40L21.82-28.80L23.11-28.80L33.77-50.40L44.35-50.40L27.22-17.35M65.46 1.01Q60.13 1.01 55.88-1.15Q51.64-3.31 49.19-7.42Q46.74-11.52 46.74-17.28L46.74-18.43Q46.74-24.19 49.19-28.30Q51.64-32.40 55.88-34.56Q60.13-36.72 65.46-36.72Q70.79-36.72 75.04-34.56Q79.28-32.40 81.73-28.30Q84.18-24.19 84.18-18.43L84.18-17.28Q84.18-11.52 81.73-7.42Q79.28-3.31 75.04-1.15Q70.79 1.01 65.46 1.01M65.46-7.06Q69.64-7.06 72.37-9.76Q75.11-12.46 75.11-17.50L75.11-18.22Q75.11-23.26 72.41-25.96Q69.71-28.66 65.46-28.66Q61.28-28.66 58.55-25.96Q55.81-23.26 55.81-18.22L55.81-17.50Q55.81-12.46 58.55-9.76Q61.28-7.06 65.46-7.06M105.86 1.01Q98.88 1.01 94.42-2.02Q89.95-5.04 89.02-10.66L97.37-12.82Q97.87-10.30 99.06-8.86Q100.25-7.42 102.01-6.80Q103.78-6.19 105.86-6.19Q109.03-6.19 110.54-7.31Q112.06-8.42 112.06-10.08Q112.06-11.74 110.62-12.64Q109.18-13.54 106.01-14.11L103.99-14.47Q100.25-15.19 97.15-16.45Q94.06-17.71 92.18-19.94Q90.31-22.18 90.31-25.70Q90.31-31.03 94.20-33.88Q98.09-36.72 104.42-36.72Q110.40-36.72 114.36-34.06Q118.32-31.39 119.54-27.07L111.12-24.48Q110.54-27.22 108.78-28.37Q107.02-29.52 104.42-29.52Q101.83-29.52 100.46-28.62Q99.10-27.72 99.10-26.14Q99.10-24.41 100.54-23.58Q101.98-22.75 104.42-22.32L106.44-21.96Q110.47-21.24 113.75-20.05Q117.02-18.86 118.93-16.67Q120.84-14.47 120.84-10.73Q120.84-5.11 116.77-2.05Q112.70 1.01 105.86 1.01M142.09 1.01Q135.11 1.01 130.64-2.02Q126.18-5.04 125.24-10.66L133.60-12.82Q134.10-10.30 135.29-8.86Q136.48-7.42 138.24-6.80Q140-6.19 142.09-6.19Q145.26-6.19 146.77-7.31Q148.28-8.42 148.28-10.08Q148.28-11.74 146.84-12.64Q145.40-13.54 142.24-14.11L140.22-14.47Q136.48-15.19 133.38-16.45Q130.28-17.71 128.41-19.94Q126.54-22.18 126.54-25.70Q126.54-31.03 130.43-33.88Q134.32-36.72 140.65-36.72Q146.63-36.72 150.59-34.06Q154.55-31.39 155.77-27.07L147.35-24.48Q146.77-27.22 145.01-28.37Q143.24-29.52 140.65-29.52Q138.06-29.52 136.69-28.62Q135.32-27.72 135.32-26.14Q135.32-24.41 136.76-23.58Q138.20-22.75 140.65-22.32L142.67-21.96Q146.70-21.24 149.98-20.05Q153.25-18.86 155.16-16.67Q157.07-14.47 157.07-10.73Q157.07-5.11 153-2.05Q148.93 1.01 142.09 1.01M172.56 0L163.49 0L163.49-35.71L172.56-35.71L172.56 0M168.02-39.89Q165.58-39.89 163.88-41.47Q162.19-43.06 162.19-45.65Q162.19-48.24 163.88-49.82Q165.58-51.41 168.02-51.41Q170.54-51.41 172.20-49.82Q173.86-48.24 173.86-45.65Q173.86-43.06 172.20-41.47Q170.54-39.89 168.02-39.89M203.98 0L194.18 0L207.43-50.40L223.99-50.40L237.24 0L227.45 0L224.71-11.09L206.71-11.09L203.98 0M215.06-44.42L208.94-19.87L222.48-19.87L216.36-44.42M263.53 1.01Q258.71 1.01 256.12-0.65Q253.52-2.30 252.30-4.32L251-4.32L251 0L242.08 0L242.08-50.40L251.15-50.40L251.15-31.61L252.44-31.61Q253.24-32.90 254.57-34.06Q255.90-35.21 258.10-35.96Q260.29-36.72 263.53-36.72Q267.85-36.72 271.52-34.60Q275.20-32.47 277.43-28.37Q279.66-24.26 279.66-18.43L279.66-17.28Q279.66-11.45 277.43-7.34Q275.20-3.24 271.52-1.12Q267.85 1.01 263.53 1.01M260.80-6.91Q264.97-6.91 267.78-9.61Q270.59-12.31 270.59-17.50L270.59-18.22Q270.59-23.40 267.82-26.10Q265.04-28.80 260.80-28.80Q256.62-28.80 253.81-26.10Q251-23.40 251-18.22L251-17.50Q251-12.31 253.81-9.61Q256.62-6.91 260.80-6.91M300.12 0.58Q295.94 0.58 292.81-1.33Q289.68-3.24 287.95-6.62Q286.22-10.01 286.22-14.40L286.22-35.71L295.30-35.71L295.30-15.12Q295.30-11.09 297.28-9.07Q299.26-7.06 302.93-7.06Q307.10-7.06 309.41-9.83Q311.71-12.60 311.71-17.57L311.71-35.71L320.78-35.71L320.78 0L311.86 0L311.86-4.68L310.56-4.68Q309.70-2.88 307.32-1.15Q304.94 0.58 300.12 0.58M353.12 0L343.04 0Q339.52 0 337.32-2.20Q335.12-4.39 335.12-8.06L335.12-28.22L326.20-28.22L326.20-35.71L335.12-35.71L335.12-46.80L344.20-46.80L344.20-35.71L353.99-35.71L353.99-28.22L344.20-28.22L344.20-9.65Q344.20-7.49 346.21-7.49L353.12-7.49M382.15 1.01Q377.33 1.01 374.74-0.65Q372.14-2.30 370.92-4.32L369.62-4.32L369.62 0L360.70 0L360.70-50.40L369.77-50.40L369.77-31.61L371.06-31.61Q371.86-32.90 373.19-34.06Q374.52-35.21 376.72-35.96Q378.91-36.72 382.15-36.72Q386.47-36.72 390.14-34.60Q393.82-32.47 396.05-28.37Q398.28-24.26 398.28-18.43L398.28-17.28Q398.28-11.45 396.05-7.34Q393.82-3.24 390.14-1.12Q386.47 1.01 382.15 1.01M379.42-6.91Q383.59-6.91 386.40-9.61Q389.21-12.31 389.21-17.50L389.21-18.22Q389.21-23.40 386.44-26.10Q383.66-28.80 379.42-28.80Q375.24-28.80 372.43-26.10Q369.62-23.40 369.62-18.22L369.62-17.50Q369.62-12.31 372.43-9.61Q375.24-6.91 379.42-6.91M418.74 0.58Q414.56 0.58 411.43-1.33Q408.30-3.24 406.57-6.62Q404.84-10.01 404.84-14.40L404.84-35.71L413.92-35.71L413.92-15.12Q413.92-11.09 415.90-9.07Q417.88-7.06 421.55-7.06Q425.72-7.06 428.03-9.83Q430.33-12.60 430.33-17.57L430.33-35.71L439.40-35.71L439.40 0L430.48 0L430.48-4.68L429.18-4.68Q428.32-2.88 425.94-1.15Q423.56 0.58 418.74 0.58M457.06 0L447.98 0L447.98-50.40L457.06-50.40"/>
</svg>
